<svg width="20" height="20" viewBox="0 0 20 20" fill="none" xmlns="http://www.w3.org/2000/svg">
<path d="M18.1048 3.95161L14.5565 7.5L12.5403 8.62903L12.7419 9.1129L14.5565 8.54839H20V11.4516H14.5565L12.7419 10.8871L12.5403 11.371L14.5565 12.5L18.1048 16.0484L16.0484 18.1048L12.5 14.5565L11.371 12.5403L10.8871 12.7419L11.4516 14.5565V20H8.54839V14.5565L9.1129 12.7419L8.62903 12.5403L7.5 14.5565L3.95161 18.1048L1.89516 16.0484L5.44355 12.5L7.45968 11.371L7.25806 10.8871L5.44355 11.4516H0V8.54839H5.44355L7.25806 9.1129L7.45968 8.62903L5.44355 7.5L1.89516 3.95161L3.95161 1.89516L7.5 5.44355L8.62903 7.45968L9.1129 7.25806L8.54839 5.44355V0H11.4516V5.44355L10.8871 7.25806L11.371 7.45968L12.5 5.44355L16.0484 1.89516L18.1048 3.95161Z" fill="#4CB2C3"/>
</svg>
