<svg width="24" height="20" viewBox="0 0 24 20" fill="none" xmlns="http://www.w3.org/2000/svg">
<path d="M21 7.662C18.713 7.856 15.803 8.7 14 9.456V8.392C15.933 7.671 18.598 6.852 21 6.647V7.662V7.662ZM21 9.693C18.713 9.887 15.803 10.731 14 11.487V10.423C15.933 9.702 18.598 8.883 21 8.678V9.693ZM21 11.724C18.713 11.918 15.803 12.762 14 13.518V12.454C15.933 11.733 18.598 10.914 21 10.709V11.724V11.724ZM21 13.755C18.713 13.949 15.803 14.793 14 15.549V14.485C15.933 13.764 18.598 12.945 21 12.74V13.755ZM21 3.804C18.598 4.008 15.932 4.828 14 5.549V7.482C15.804 6.726 18.713 5.882 21 5.688V3.804ZM3 6.647C5.402 6.852 8.067 7.671 10 8.392V9.456C8.197 8.7 5.287 7.856 3 7.662V6.647ZM3 8.678C5.402 8.883 8.067 9.702 10 10.423V11.487C8.197 10.731 5.287 9.887 3 9.693V8.678V8.678ZM3 10.709C5.402 10.914 8.067 11.733 10 12.454V13.518C8.197 12.762 5.287 11.918 3 11.724V10.709ZM3 12.741C5.402 12.946 8.067 13.765 10 14.486V15.55C8.197 14.794 5.287 13.95 3 13.756V12.741ZM3 5.687C5.287 5.881 8.196 6.725 10 7.481V5.548C8.068 4.828 5.402 4.008 3 3.804V5.687V5.687ZM12 2.963C8.937 1.292 4.224 0.208 0 0V17C4.289 17.206 8.195 18.249 12 20C15.805 18.249 19.711 17.206 24 17V0C19.776 0.208 15.063 1.292 12 2.963V2.963ZM2 2.172C6.264 2.668 8.86 3.639 11 4.717V17.419C8.032 16.235 5.061 15.469 2 15.148V2.172ZM22 15.147C18.939 15.468 15.968 16.235 13 17.418V4.717C15.187 3.614 17.757 2.666 22 2.173V15.147Z" fill="#F27935"/>
</svg>
