<svg width="25" height="20" viewBox="0 0 25 20" fill="none" xmlns="http://www.w3.org/2000/svg">
<path d="M24.6103 2.36772C23.7049 2.76969 22.7317 3.0404 21.7104 3.16243C22.7533 2.53794 23.5541 1.5484 23.9305 0.369155C22.9553 0.947498 21.8745 1.36792 20.724 1.59454C19.8041 0.613207 18.4906 -9.58368e-08 17.0386 -9.58368e-08C13.7787 -9.58368e-08 11.3833 3.04143 12.1196 6.19873C7.92453 5.98852 4.20427 3.97867 1.71349 0.923913C0.390689 3.19319 1.02748 6.16181 3.27523 7.66509C2.44873 7.63843 1.6694 7.41181 0.989541 7.03343C0.934167 9.37244 2.61075 11.5607 5.03897 12.0478C4.32834 12.2406 3.55004 12.2857 2.75841 12.1339C3.40033 14.1397 5.26456 15.5989 7.47539 15.6399C5.35275 17.3041 2.67842 18.0476 0 17.7317C2.23441 19.1643 4.88925 20 7.73995 20C17.1144 20 22.4108 12.0827 22.0909 4.98154C23.0773 4.26887 23.9336 3.37982 24.6103 2.36772Z" fill="#F27935"/>
</svg>
